<svg width="1440" height="223" viewBox="0 0 1440 223" fill="none" xmlns="http://www.w3.org/2000/svg">
<path fill-rule="evenodd" clip-rule="evenodd" d="M0 83.625L24 97.5625C48 111.5 96 139.375 144 153.312C192 167.25 240 167.25 288 134.729C336 102.208 384 37.1667 432 27.875C480 18.5833 528 65.0417 576 92.9167C624 120.792 672 130.083 720 102.208C768 74.3333 816 9.29167 864 13.9375C912 18.5833 960 92.9167 1008 102.208C1056 111.5 1104 55.75 1152 46.4583C1200 37.1667 1248 74.3333 1296 74.3333C1344 74.3333 1392 37.1667 1416 18.5833L1440 0V223H1416C1392 223 1344 223 1296 223C1248 223 1200 223 1152 223C1104 223 1056 223 1008 223C960 223 912 223 864 223C816 223 768 223 720 223C672 223 624 223 576 223C528 223 480 223 432 223C384 223 336 223 288 223C240 223 192 223 144 223C96 223 48 223 24 223H0V83.625Z" fill="#52057B"/>
<path fill-rule="evenodd" clip-rule="evenodd" d="M0 106.75L24 118.375C48 130 96 153.25 144 164.875C192 176.5 240 176.5 288 149.375C336 122.25 384 68 432 60.25C480 52.5 528 91.25 576 114.5C624 137.75 672 145.5 720 122.25C768 99 816 44.75 864 48.625C912 52.5 960 114.5 1008 122.25C1056 130 1104 83.5 1152 75.75C1200 68 1248 99 1296 99C1344 99 1392 68 1416 52.5L1440 37V223H1416C1392 223 1344 223 1296 223C1248 223 1200 223 1152 223C1104 223 1056 223 1008 223C960 223 912 223 864 223C816 223 768 223 720 223C672 223 624 223 576 223C528 223 480 223 432 223C384 223 336 223 288 223C240 223 192 223 144 223C96 223 48 223 24 223H0V106.75Z" fill="#892CDC"/>
</svg>
