<svg width="594" height="707" viewBox="0 0 594 707" fill="none" xmlns="http://www.w3.org/2000/svg">
<path fill-rule="evenodd" clip-rule="evenodd" d="M341.671 139.35C350.529 128.953 356.524 116.21 355.522 101.932C352.635 60.7936 295.369 69.8436 284.229 90.607C273.09 111.37 274.413 164.038 288.81 167.749C294.552 169.229 306.783 165.604 319.231 158.101L311.417 213.379H357.553L341.671 139.35Z" fill="#B28B67"/>
<path fill-rule="evenodd" clip-rule="evenodd" d="M310.526 66.6765C316.606 65.6794 332.978 64.9938 335.998 64.9942C337.927 64.9942 340.018 65.4351 341.161 63.6634C342.097 62.2126 341.754 59.7589 342.033 58.0753C342.358 56.1195 342.818 54.1889 343.284 52.2632C344.61 46.7835 346.615 41.5703 349.42 36.6757C354.684 27.4929 362.396 20.3 372.131 16.1145C382.881 11.493 395.047 10.4347 406.61 11.3721C418.985 12.375 430.187 16.4601 441.871 20.3044C453.005 23.9677 464.666 25.4097 476.311 23.6207C488.044 21.8185 496.909 15.4594 506.806 9.42387C516.937 3.24491 528.514 -0.796353 540.491 0.132638C551.671 1.00011 561.975 5.61629 571.22 11.7829C579.869 17.5524 587.006 24.494 591.035 34.2636C595.37 44.7729 595.366 56.3085 588.238 65.5962C577.906 79.0588 558.725 82.5402 542.768 82.1941C533.538 81.9945 524.473 80.3095 515.759 77.2446C504.137 73.1569 494.094 66.2286 483.222 60.6073C478.119 57.9695 472.845 55.803 467.317 54.2425C461.953 52.7275 456.669 52.0326 451.812 55.2733C446.674 58.7015 442.07 62.0692 436.192 64.2153C430.553 66.2742 424.58 67.4258 418.572 67.3793C406.883 67.2891 395.36 63.647 384.007 61.2075C374.75 59.2185 364.844 57.2361 355.406 59.1481C351.467 59.9461 345.715 61.5934 344.292 65.6864C368.234 70.0256 377.637 99.6347 370.887 121.371C367.244 133.102 345.347 146.816 336.833 140.649C331.439 136.742 334.714 131.612 336.833 128.226C340.891 121.741 342.28 113.411 334.77 108.896C328.293 105.002 321.482 114.249 321.353 114.239C319.573 114.099 304.189 105.399 293.59 92.7027C283.133 93.3225 281.547 86.428 284.044 80.7896C286.54 75.1512 302.124 68.0552 310.526 66.6765Z" fill="#191847"/>
<path d="M376.777 707.418C295.028 707.418 228.757 644.159 228.757 566.126C228.757 488.093 295.028 424.835 376.777 424.835C458.526 424.835 524.796 488.093 524.796 566.126C524.796 644.159 458.526 707.418 376.777 707.418Z" fill="#C5CFD6"/>
<path fill-rule="evenodd" clip-rule="evenodd" d="M97.0599 685.618C121.69 631.104 139.503 583.635 146.653 558.591C158.895 515.708 168.208 477.975 170.562 463.883C176.175 430.279 127.383 428.323 120.933 445.023C111.172 470.3 94.131 553.348 73.6548 678.789L97.0599 685.618ZM382.758 514.538C360.16 505.605 281.022 477.651 242.853 469.743C231.885 467.471 221.255 465.359 211.26 463.451C181.553 457.78 166.161 511.373 194.773 515.491C266.028 525.746 367.044 536.336 375.689 537.525C387.805 539.191 396.961 520.152 382.758 514.538Z" fill="#B28B67"/>
<path fill-rule="evenodd" clip-rule="evenodd" d="M193.027 448.703L315.262 386.478V372.932H300.725C182.468 403.066 122.038 422.378 119.437 430.867C119.409 430.958 119.383 431.05 119.36 431.141C119.3 431.219 119.242 431.298 119.184 431.377C95.7484 463.608 81.7126 620.964 77.1058 632.747L122.015 639.446C139.193 575.744 194.155 531.367 192.695 455.071C193.09 452.833 193.189 450.711 193.027 448.703Z" fill="#1F28CF"/>
<path fill-rule="evenodd" clip-rule="evenodd" d="M305.106 485.658C316.29 483.42 326.59 481.421 335.403 479.876C392.33 469.891 408.93 439.418 399.115 372.932H294.229C277.095 377.854 188.054 415.194 141.855 435.055C111.279 448.199 120.918 495.585 138.233 507.917C138.327 508.674 138.639 509.187 139.194 509.417C232.339 548.023 306.025 527.767 330.641 534.239L342.027 498.323L305.106 485.658Z" fill="#2B44FF"/>
<path fill-rule="evenodd" clip-rule="evenodd" d="M375.032 508.829C381.134 509.412 385.467 510.329 388.028 511.578C391.144 513.098 395.437 515.835 400.909 519.788C399.146 523.403 383.303 555.886 353.379 617.238C343.772 615.687 339.965 612.021 341.959 606.239C343.952 600.458 345.56 595.631 346.782 591.76L348.682 536.618C348.718 535.557 349.608 534.726 350.669 534.763C350.687 534.763 350.705 534.764 350.723 534.765L359.206 535.299C364.026 531.397 367.206 527.867 368.746 524.71C369.998 522.144 370.689 518.095 370.822 512.564L370.822 512.564C370.873 510.441 372.635 508.761 374.758 508.812C374.849 508.815 374.941 508.82 375.032 508.829Z" fill="#E4E4E4"/>
<path fill-rule="evenodd" clip-rule="evenodd" d="M108.269 675.51C110.42 681.251 111.495 685.547 111.495 688.397C111.495 691.864 110.918 696.922 109.763 703.573C105.741 703.573 69.6003 703.573 1.33977 703.573C-1.47776 694.258 0.148674 689.229 6.21909 688.487C12.2895 687.744 17.3323 687.073 21.3475 686.475L71.7414 664.009C72.7111 663.577 73.8476 664.012 74.2799 664.982C74.2873 664.999 74.2944 665.015 74.3013 665.032L77.5406 672.89C83.1602 675.512 87.7267 676.823 91.2402 676.823C94.0947 676.823 98.0369 675.67 103.067 673.364L103.067 673.364C104.997 672.479 107.279 673.327 108.164 675.257C108.202 675.34 108.237 675.425 108.269 675.51Z" fill="#E4E4E4"/>
<path fill-rule="evenodd" clip-rule="evenodd" d="M196.078 320.293L126.423 289.703C114.221 277.544 102.438 268.303 91.0749 261.979C87.677 260.897 81.8719 260.57 88.0655 269.617C94.2591 278.663 100.367 288.457 97.8922 291.628C95.4174 294.798 88.2484 291.299 85.4162 296.455C83.528 299.892 95.6123 304.003 121.669 308.789L173.836 348.786L196.078 320.293ZM477.683 328.718L438.291 336.534C477.906 410.362 499.151 449.49 502.026 453.92C508.494 463.887 502.459 482.154 500.23 491.773C514.215 495.028 508.7 473.979 526.397 478.374C542.551 482.385 556.247 492.68 571.309 478.796C573.161 477.089 574.517 471.754 568.203 469.017C552.473 462.2 529.233 449.434 525.464 444.477C520.326 437.719 504.399 399.132 477.683 328.718Z" fill="#B28B67"/>
<path fill-rule="evenodd" clip-rule="evenodd" d="M331.227 181.337L314.604 178.486C278.399 213.607 263.624 297.985 239.495 309.154C216.683 319.714 184.345 309.495 145.905 295.698L134.133 321.999C169.059 359.784 243.465 391.707 273.624 373.483C321.843 344.347 332.975 240.279 331.227 181.337Z" fill="#892CDC"/>
<path fill-rule="evenodd" clip-rule="evenodd" d="M403.689 390.233C337.039 390.233 288.012 390.233 256.609 390.233C249.888 390.233 251.155 380.528 252.126 375.631C263.339 319.114 307.109 258.191 307.109 177.74L349.534 171.087C384.625 227.524 396.76 297.009 403.689 390.233Z" fill="#DDE3E9"/>
<path fill-rule="evenodd" clip-rule="evenodd" d="M418.359 333.011C448.342 387.095 473.545 426.033 493.967 449.825L524.796 443.787C504.937 320.627 447.429 229.727 352.271 171.087H344.613L335.473 171.087C297.387 300.916 286.887 387.421 303.974 430.602H436.369C434.274 399.005 427.558 365.591 418.359 333.011H418.359Z" fill="#892CDC"/>
</svg>
